<svg width="1200" height="1500" viewBox="0 0 1200 1500" fill="none" xmlns="http://www.w3.org/2000/svg">
  <defs>
    <radialGradient id="bg-gradient" cx="50%" cy="50%" r="50%">
      <stop offset="0%" style="stop-color:#1a1b1f;stop-opacity:1" />
      <stop offset="100%" style="stop-color:#0B0B0D;stop-opacity:1" />
    </radialGradient>
  </defs>
  <rect width="1200" height="1500" fill="url(#bg-gradient)"/>
  <rect x="80" y="120" width="1040" height="1260" rx="64" fill="#14151A" stroke="#C8A15A" stroke-width="3"/>
  <circle cx="820" cy="520" r="220" fill="#C8A15A" fill-opacity="0.25"/>
  <circle cx="380" cy="850" r="180" fill="#C8A15A" fill-opacity="0.15"/>
  <circle cx="520" cy="900" r="200" fill="#C8A15A" fill-opacity="0.12"/>
  
  <!-- Premium barber chair -->
  <g transform="translate(300 500)">
    <ellipse cx="100" cy="250" rx="60" ry="20" fill="#C8A15A" opacity="0.3"/>
    <rect x="80" y="200" width="40" height="50" rx="8" fill="#C8A15A"/>
    <ellipse cx="100" cy="200" rx="70" ry="25" fill="#2d2e33"/>
    <rect x="40" y="190" width="120" height="50" rx="20" fill="#3a3b41"/>
    <rect x="60" y="100" width="80" height="110" rx="40" fill="#3a3b41"/>
    <rect x="68" y="108" width="64" height="94" rx="32" fill="#4a4b51"/>
    <circle cx="100" cy="80" r="22" fill="#3a3b41"/>
  </g>
  
  <!-- Scissors -->
  <g transform="translate(360 520)" stroke="#F5F5F7" stroke-width="8" stroke-linecap="round" stroke-linejoin="round">
    <path d="M40 0L160 120" stroke-width="6"/>
    <path d="M160 0L40 120" stroke-width="6"/>
    <circle cx="30" cy="140" r="28" fill="#0B0B0D" stroke="#C8A15A" stroke-width="3"/>
    <circle cx="170" cy="140" r="28" fill="#0B0B0D" stroke="#C8A15A" stroke-width="3"/>
  </g>
  
  <!-- Mirror with tools -->
  <g transform="translate(680 560)">
    <rect x="0" y="0" width="200" height="240" rx="28" fill="#0B0B0D" stroke="#C8A15A" stroke-width="4"/>
    <rect x="12" y="12" width="176" height="216" rx="20" fill="#14151A" opacity="0.5"/>
    <!-- Comb -->
    <rect x="40" y="60" width="120" height="16" rx="8" fill="#C8A15A" opacity="0.8"/>
    <g transform="translate(40, 76)">
      <rect x="10" y="0" width="3" height="20" fill="#C8A15A"/>
      <rect x="20" y="0" width="3" height="20" fill="#C8A15A"/>
      <rect x="30" y="0" width="3" height="20" fill="#C8A15A"/>
      <rect x="40" y="0" width="3" height="20" fill="#C8A15A"/>
      <rect x="50" y="0" width="3" height="20" fill="#C8A15A"/>
      <rect x="60" y="0" width="3" height="20" fill="#C8A15A"/>
      <rect x="70" y="0" width="3" height="20" fill="#C8A15A"/>
      <rect x="80" y="0" width="3" height="20" fill="#C8A15A"/>
      <rect x="90" y="0" width="3" height="20" fill="#C8A15A"/>
      <rect x="100" y="0" width="3" height="20" fill="#C8A15A"/>
    </g>
    <!-- Razor -->
    <g transform="translate(50, 130)">
      <rect x="0" y="20" width="100" height="16" rx="8" fill="#C8A15A" opacity="0.8"/>
      <path d="M 0 28 L 20 0 L 28 0 L 8 28 Z" fill="#C8A15A"/>
    </g>
  </g>
  
  <!-- Decorative lines -->
  <path d="M320 360H880" stroke="#C8A15A" stroke-width="4" stroke-linecap="round"/>
  <path d="M360 430H840" stroke="#F5F5F7" stroke-width="2" stroke-linecap="round" stroke-opacity="0.5"/>
  <path d="M320 1050H880" stroke="#C8A15A" stroke-width="4" stroke-linecap="round"/>
  
  <text x="50%" y="72%" text-anchor="middle" fill="#F5F5F7" font-size="48" font-family="'Manrope', sans-serif" font-weight="bold" letter-spacing="8">DINASTY BARBER</text>
  <text x="50%" y="76%" text-anchor="middle" fill="#C8A15A" font-size="20" font-family="'Manrope', sans-serif" letter-spacing="6">EXPERIENCIA PREMIUM</text>
  <text x="50%" y="79%" text-anchor="middle" fill="#F5F5F7" font-size="14" font-family="'Manrope', sans-serif" letter-spacing="3" opacity="0.6">Precisión · Elegancia · Exclusividad</text>
</svg>
