<svg width="1600" height="700" viewBox="0 0 1600 700" fill="none" xmlns="http://www.w3.org/2000/svg">
  <defs>
    <linearGradient id="services-bg" x1="0%" y1="0%" x2="100%" y2="100%">
      <stop offset="0%" style="stop-color:#0B0B0D;stop-opacity:1" />
      <stop offset="100%" style="stop-color:#1a1b1f;stop-opacity:1" />
    </linearGradient>
  </defs>
  <rect width="1600" height="700" fill="url(#services-bg)"/>
  <rect x="60" y="80" width="1480" height="540" rx="60" fill="#14151A" stroke="#C8A15A" stroke-width="3"/>
  
  <!-- Service 1: Corte Signature -->
  <g transform="translate(140, 180)">
    <rect width="400" height="340" rx="32" fill="#15161B" stroke="#C8A15A" stroke-opacity="0.4" stroke-width="2"/>
    <circle cx="200" cy="120" r="70" fill="#C8A15A" opacity="0.15"/>
    <g transform="translate(130, 60)" stroke="#C8A15A" stroke-width="8" stroke-linecap="round">
      <path d="M40 0L140 100"/>
      <path d="M140 0L40 100"/>
      <circle cx="32" cy="118" r="26" fill="#0B0B0D" stroke="#C8A15A" stroke-width="4"/>
      <circle cx="148" cy="118" r="26" fill="#0B0B0D" stroke="#C8A15A" stroke-width="4"/>
    </g>
    <text x="200" y="260" text-anchor="middle" fill="#C8A15A" font-size="20" font-family="'Manrope', sans-serif" font-weight="bold" letter-spacing="3">CORTE SIGNATURE</text>
    <text x="200" y="290" text-anchor="middle" fill="#F5F5F7" font-size="14" font-family="'Manrope', sans-serif" letter-spacing="2" opacity="0.7">Precisión milimétrica</text>
  </g>
  
  <!-- Service 2: Barba Premium -->
  <g transform="translate(600, 180)">
    <rect width="400" height="340" rx="32" fill="#15161B" stroke="#C8A15A" stroke-opacity="0.4" stroke-width="2"/>
    <circle cx="200" cy="120" r="70" fill="#C8A15A" opacity="0.15"/>
    <g transform="translate(100, 80)">
      <rect x="0" y="0" width="200" height="160" rx="28" fill="#0B0B0D" stroke="#C8A15A" stroke-width="4"/>
      <rect x="12" y="12" width="176" height="136" rx="20" fill="#14151A" opacity="0.6"/>
      <rect x="30" y="40" width="140" height="18" rx="9" fill="#C8A15A" opacity="0.9"/>
      <g transform="translate(30, 58)">
        <rect x="12" y="0" width="4" height="24" fill="#C8A15A"/>
        <rect x="24" y="0" width="4" height="24" fill="#C8A15A"/>
        <rect x="36" y="0" width="4" height="24" fill="#C8A15A"/>
        <rect x="48" y="0" width="4" height="24" fill="#C8A15A"/>
        <rect x="60" y="0" width="4" height="24" fill="#C8A15A"/>
        <rect x="72" y="0" width="4" height="24" fill="#C8A15A"/>
        <rect x="84" y="0" width="4" height="24" fill="#C8A15A"/>
        <rect x="96" y="0" width="4" height="24" fill="#C8A15A"/>
        <rect x="108" y="0" width="4" height="24" fill="#C8A15A"/>
        <rect x="120" y="0" width="4" height="24" fill="#C8A15A"/>
      </g>
      <g transform="translate(40, 110)">
        <rect x="0" y="16" width="120" height="18" rx="9" fill="#C8A15A" opacity="0.9"/>
        <path d="M 0 25 L 24 0 L 32 0 L 8 25 Z" fill="#C8A15A"/>
      </g>
    </g>
    <text x="200" y="260" text-anchor="middle" fill="#C8A15A" font-size="20" font-family="'Manrope', sans-serif" font-weight="bold" letter-spacing="3">BARBA PREMIUM</text>
    <text x="200" y="290" text-anchor="middle" fill="#F5F5F7" font-size="14" font-family="'Manrope', sans-serif" letter-spacing="2" opacity="0.7">Ritual de lujo</text>
  </g>
  
  <!-- Service 3: Experiencia Total -->
  <g transform="translate(1060, 180)">
    <rect width="400" height="340" rx="32" fill="#15161B" stroke="#C8A15A" stroke-opacity="0.4" stroke-width="2"/>
    <circle cx="200" cy="120" r="70" fill="#C8A15A" opacity="0.15"/>
    <g transform="translate(140, 60)">
      <circle cx="60" cy="80" r="55" fill="none" stroke="#C8A15A" stroke-width="6"/>
      <path d="M 60 25 L 70 55 L 100 55 L 75 75 L 85 105 L 60 85 L 35 105 L 45 75 L 20 55 L 50 55 Z" fill="#C8A15A"/>
    </g>
    <text x="200" y="260" text-anchor="middle" fill="#C8A15A" font-size="20" font-family="'Manrope', sans-serif" font-weight="bold" letter-spacing="3">EXPERIENCIA TOTAL</text>
    <text x="200" y="290" text-anchor="middle" fill="#F5F5F7" font-size="14" font-family="'Manrope', sans-serif" letter-spacing="2" opacity="0.7">Look completo premium</text>
  </g>
  
  <text x="50%" y="12%" text-anchor="middle" fill="#F5F5F7" font-size="36" font-family="'Manrope', sans-serif" font-weight="bold" letter-spacing="8">SERVICIOS PREMIUM</text>
  <text x="50%" y="16%" text-anchor="middle" fill="#C8A15A" font-size="16" font-family="'Manrope', sans-serif" letter-spacing="5">CORTE · BARBA · ESTILO</text>
</svg>
