<svg width="1600" height="700" viewBox="0 0 1600 700" fill="none" xmlns="http://www.w3.org/2000/svg">
  <rect width="1600" height="700" fill="#0B0B0D"/>
  <rect x="60" y="80" width="1480" height="540" rx="60" fill="#14151A" stroke="#C8A15A" stroke-width="2"/>
  <rect x="140" y="180" width="400" height="340" rx="32" fill="#15161B" stroke="#C8A15A" stroke-opacity="0.3"/>
  <rect x="600" y="180" width="400" height="340" rx="32" fill="#15161B" stroke="#C8A15A" stroke-opacity="0.3"/>
  <rect x="1060" y="180" width="400" height="340" rx="32" fill="#15161B" stroke="#C8A15A" stroke-opacity="0.3"/>
  <g transform="translate(210 260)" stroke="#F5F5F7" stroke-width="6" stroke-linecap="round">
    <path d="M40 0L160 120"/>
    <path d="M160 0L40 120"/>
    <circle cx="28" cy="140" r="24" fill="#0B0B0D"/>
    <circle cx="172" cy="140" r="24" fill="#0B0B0D"/>
  </g>
  <g transform="translate(700 260)" stroke="#F5F5F7" stroke-width="6" stroke-linecap="round">
    <rect x="10" y="0" width="180" height="220" rx="24" fill="#0B0B0D" stroke="#C8A15A" stroke-width="3"/>
    <path d="M30 60H170"/>
    <path d="M30 110H170"/>
    <path d="M30 160H170"/>
  </g>
  <g transform="translate(1160 260)" stroke="#F5F5F7" stroke-width="6" stroke-linecap="round">
    <path d="M40 0H180"/>
    <path d="M60 40H160"/>
    <path d="M80 80H140"/>
    <path d="M20 120H200"/>
  </g>
  <text x="50%" y="55%" text-anchor="middle" fill="#F5F5F7" font-size="32" font-family="'Manrope', sans-serif" letter-spacing="6">RITUALES ASF</text>
  <text x="50%" y="61%" text-anchor="middle" fill="#C8A15A" font-size="14" font-family="'Manrope', sans-serif" letter-spacing="4">CORTE · BARBA · DETALLE</text>
</svg>
